<svg width="24" height="24" viewBox="0 0 24 24" fill="none" xmlns="http://www.w3.org/2000/svg">
<path d="M19.9089 13.0033L19.8721 13.289L20.1009 13.4641L22.4864 15.2896C22.4864 15.2896 22.4865 15.2897 22.4865 15.2897C22.4936 15.2952 22.4975 15.3015 22.4992 15.3104C22.5009 15.3193 22.5006 15.3329 22.4921 15.3493L20.235 19.1476L20.2349 19.1475L20.2288 19.1584L20.2287 19.1585C20.2284 19.1591 20.2243 19.1668 20.205 19.1732C20.1847 19.1799 20.1626 19.1796 20.1462 19.175L17.3427 18.0689L17.0831 17.9665L16.8597 18.1337C16.3006 18.5519 15.7277 18.8917 15.0618 19.159L14.7941 19.2664L14.7531 19.552L14.3363 22.4558C14.3324 22.4702 14.3117 22.5 14.2642 22.5H9.74078C9.69326 22.5 9.67265 22.4702 9.66868 22.4558L9.25186 19.552L9.21024 19.262L8.93698 19.1565C8.27903 18.9026 7.70851 18.5551 7.14533 18.1337L6.92188 17.9665L6.66227 18.0689L3.85881 19.175C3.84244 19.1796 3.82026 19.1799 3.8 19.1732C3.78031 19.1666 3.77642 19.1588 3.77623 19.1584L3.77637 19.1584L3.76995 19.1476L1.50824 15.3416L1.50826 15.3416L1.50573 15.3374C1.50173 15.3308 1.50068 15.3265 1.5003 15.3243C1.49988 15.3218 1.49985 15.3191 1.50052 15.3158C1.50188 15.3091 1.50644 15.299 1.51838 15.2898C1.51847 15.2897 1.51855 15.2896 1.51864 15.2896L3.90408 13.4641L4.13286 13.289L4.09614 13.0033C4.05213 12.6608 4.02106 12.3325 4.02106 12C4.02106 11.6668 4.05222 11.3269 4.0966 10.96L4.13124 10.6736L3.90058 10.5003L1.51759 8.70962C1.50624 8.70053 1.50185 8.69074 1.50052 8.68424C1.49985 8.68094 1.49988 8.67816 1.5003 8.67567C1.50068 8.67348 1.50173 8.66919 1.50573 8.6626L1.50575 8.66261L1.50824 8.65843L3.76995 4.85243L3.77009 4.85251L3.77623 4.84155C3.779 4.83662 3.78671 4.82729 3.8047 4.82113C3.82382 4.81458 3.83892 4.81712 3.84508 4.81957L3.84801 4.82073L6.66385 5.92073L6.91909 6.02043L7.14047 5.85893C7.70684 5.44574 8.27854 5.09762 8.93698 4.84346L9.21024 4.73798L9.25186 4.44804L9.66868 1.54419C9.67265 1.52979 9.69326 1.5 9.74078 1.5H14.2642C14.3117 1.5 14.3324 1.5298 14.3363 1.54419L14.7531 4.44804L14.7948 4.73798L15.068 4.84346C15.7265 5.09762 16.2982 5.44574 16.8645 5.85893L17.0859 6.02043L17.3411 5.92073L20.157 4.82073L20.1599 4.81957C20.1661 4.81712 20.1812 4.81458 20.2003 4.82113C20.2183 4.82729 20.226 4.83662 20.2288 4.84155L20.2286 4.84163L20.235 4.85243L22.4921 8.65066C22.5006 8.66714 22.5009 8.68068 22.4992 8.68957C22.4975 8.69819 22.4938 8.7044 22.4873 8.70973C22.487 8.70997 22.4867 8.71021 22.4864 8.71044L20.1044 10.5003L19.8738 10.6736L19.9084 10.96C19.9528 11.3269 19.9839 11.6668 19.9839 12C19.9839 12.3325 19.9529 12.6608 19.9089 13.0033ZM8.85514 15.0808C9.69217 15.895 10.8246 16.35 12.0025 16.35C13.1804 16.35 14.3128 15.895 15.1499 15.0808C15.9874 14.2661 16.4605 13.1582 16.4605 12C16.4605 10.8418 15.9874 9.73388 15.1499 8.91923C14.3128 8.10504 13.1804 7.65 12.0025 7.65C10.8246 7.65 9.69217 8.10504 8.85514 8.91923C8.01763 9.73388 7.54449 10.8418 7.54449 12C7.54449 13.1582 8.01763 14.2661 8.85514 15.0808Z" stroke="black"/>
</svg>
