<svg width="24" height="24" viewBox="0 0 24 24" fill="none" xmlns="http://www.w3.org/2000/svg">
<path d="M18.49 9.5C18.49 10.6065 17.6012 11.5 16.5 11.5C15.3961 11.5 14.5 10.6039 14.5 9.5C14.5 8.39614 15.3961 7.5 16.5 7.5C17.6012 7.5 18.49 8.39353 18.49 9.5ZM11.49 8C11.49 9.38604 10.3817 10.5 9 10.5C7.61614 10.5 6.5 9.38386 6.5 8C6.5 6.61614 7.61614 5.5 9 5.5C10.3817 5.5 11.49 6.61396 11.49 8ZM11.5 16.75C11.5 16.4763 11.6332 16.1996 11.941 15.9159C12.2521 15.629 12.7069 15.3701 13.2495 15.153C14.3357 14.7183 15.6475 14.5 16.5 14.5C17.3525 14.5 18.6643 14.7183 19.7505 15.153C20.2931 15.3701 20.7479 15.629 21.059 15.9159C21.3668 16.1996 21.5 16.4763 21.5 16.75V18.5H11.5V16.75ZM2.5 16.5C2.5 16.1012 2.69583 15.7151 3.10507 15.3377C3.51773 14.9571 4.11313 14.6201 4.81201 14.3405C6.21059 13.7808 7.89745 13.5 9 13.5C9.31248 13.5 9.67343 13.5242 10.0639 13.571C8.76875 14.6744 8.5 15.9329 8.5 16.75V18.5H2.5V16.5Z" stroke="white"/>
</svg>
