<svg width="24" height="24" viewBox="0 0 24 24" fill="none" xmlns="http://www.w3.org/2000/svg">
<path d="M5 12.5C4.17157 12.5 3.5 11.8284 3.5 11V5C3.5 4.17157 4.17157 3.5 5 3.5H9C9.82843 3.5 10.5 4.17157 10.5 5V11C10.5 11.8284 9.82843 12.5 9 12.5H5ZM5 20.5C4.17157 20.5 3.5 19.8284 3.5 19V17C3.5 16.1716 4.17157 15.5 5 15.5H9C9.82843 15.5 10.5 16.1716 10.5 17V19C10.5 19.8284 9.82843 20.5 9 20.5H5ZM15 20.5C14.1716 20.5 13.5 19.8284 13.5 19V13C13.5 12.1716 14.1716 11.5 15 11.5H19C19.8284 11.5 20.5 12.1716 20.5 13V19C20.5 19.8284 19.8284 20.5 19 20.5H15ZM13.5 5C13.5 4.17157 14.1716 3.5 15 3.5H19C19.8284 3.5 20.5 4.17157 20.5 5V7C20.5 7.82843 19.8284 8.5 19 8.5H15C14.1716 8.5 13.5 7.82843 13.5 7V5Z" stroke="black"/>
</svg>
