<svg width="24" height="24" viewBox="0 0 24 24" fill="none" xmlns="http://www.w3.org/2000/svg">
<path d="M3.6 20V20.4H4H17.6V21.6H4C3.12091 21.6 2.4 20.8791 2.4 20V6.4H3.6V20ZM19 11.4H19.4V11V9V8.6H19H9H8.6V9V11V11.4H9H19ZM15 15.4H15.4V15V13V12.6H15H9H8.6V13V15V15.4H9H15ZM19 7.4H19.4V7V5V4.6H19H9H8.6V5V7V7.4H9H19ZM8 2.4H20C20.8791 2.4 21.6 3.12091 21.6 4V16C21.6 16.8791 20.8791 17.6 20 17.6H8C7.12091 17.6 6.4 16.8791 6.4 16V4C6.4 3.12091 7.12091 2.4 8 2.4Z" stroke="white" stroke-width="0.8"/>
</svg>
