<svg width="485" height="657" viewBox="0 0 485 657" fill="none" xmlns="http://www.w3.org/2000/svg">
<g clip-path="url(#clip0_713_5751)">
<path d="M484.428 207.639V599.41C484.428 614.736 478.115 629.434 466.879 640.272C455.642 651.109 440.401 657.197 424.51 657.197C408.618 657.197 393.377 651.109 382.141 640.272C370.904 629.434 364.591 614.736 364.591 599.41V354.553C326.999 373.05 285.431 382.779 243.23 382.957C200.154 382.637 157.806 372.216 119.838 352.594V597.452C119.838 612.777 113.525 627.476 102.288 638.313C91.0508 649.15 75.8103 655.238 59.9188 655.238C44.0274 655.238 28.7868 649.15 17.5498 638.313C6.31286 627.476 0 612.777 0 597.452L0 205.68C0 190.354 6.31286 175.656 17.5498 164.819C28.7868 153.982 44.0274 147.894 59.9188 147.894C75.8103 147.894 91.0508 153.982 102.288 164.819C113.525 175.656 119.838 190.354 119.838 205.68V265.425C155.287 290.675 198.145 304.396 242.214 304.602C286.176 304.24 328.937 290.722 364.591 265.915V207.639C364.591 192.313 370.904 177.615 382.141 166.778C393.377 155.941 408.618 149.852 424.51 149.852C440.401 149.852 455.642 155.941 466.879 166.778C478.115 177.615 484.428 192.313 484.428 207.639Z" fill="#1768AC" fill-opacity="0.2"/>
<path d="M119.838 57.7863C119.838 25.8718 93.011 0 59.9188 0C26.8266 0 0 25.8718 0 57.7863V68.0703C0 99.9849 26.8266 125.857 59.9188 125.857C93.011 125.857 119.838 99.9849 119.838 68.0703V57.7863Z" fill="#1768AC" fill-opacity="0.2"/>
<path d="M484.428 57.7863C484.428 25.8718 457.601 0 424.509 0C391.417 0 364.59 25.8718 364.59 57.7863V68.0703C364.59 99.9849 391.417 125.857 424.509 125.857C457.601 125.857 484.428 99.9849 484.428 68.0703V57.7863Z" fill="#1768AC" fill-opacity="0.2"/>
</g>
<defs>
<clipPath id="clip0_713_5751">
<rect width="484.428" height="656.707" fill="white"/>
</clipPath>
</defs>
</svg>
